<svg xmlns="http://www.w3.org/2000/svg" xmlns:xlink="http://www.w3.org/1999/xlink" width="500" zoomAndPan="magnify" viewBox="0 0 375 374.999991" height="500" preserveAspectRatio="xMidYMid meet" version="1.0"><defs><g/></defs><g fill="#ffffff" fill-opacity="1"><g transform="translate(46.791758, 193.533429)"><g><path d="M 15.042969 6.820312 L 15.042969 11.59375 L 14.171875 11.59375 C 12.542969 11.59375 9.851562 10.761719 10.796875 9.09375 C 11.292969 8.109375 13.640625 7.125 15.042969 6.820312 Z M 16.671875 11.367188 L 16.785156 7.917969 C 16.898438 6.667969 16.367188 6.480469 17.582031 6.289062 C 19.285156 6.023438 20.648438 5.871094 22.015625 5.871094 C 23.039062 5.871094 24.097656 5.949219 25.347656 6.136719 C 26.066406 6.25 27.015625 6.515625 27.734375 6.515625 C 26.902344 7.691406 19.171875 11.367188 16.671875 11.367188 Z M 29.289062 5.53125 C 28.644531 5.53125 28.265625 5.417969 27.734375 5.304688 C 25.5 4.925781 23.644531 4.699219 21.636719 4.699219 C 20.5 4.699219 19.324219 4.773438 17.996094 4.964844 C 17.503906 5.039062 17.203125 5.113281 17.011719 5.113281 C 16.445312 5.113281 17.089844 4.355469 17.050781 0.226562 L 17.582031 -7.691406 C 17.921875 -10.191406 18.074219 -12.503906 18.527344 -15.269531 C 19.019531 -18.414062 19.511719 -20.6875 20.082031 -23.71875 C 20.347656 -25.121094 20.460938 -24.96875 22.847656 -26.03125 L 26.636719 -27.355469 C 28.683594 -27.960938 30.992188 -28.417969 33.304688 -28.417969 C 34.972656 -28.417969 36.675781 -28.191406 38.230469 -27.507812 C 46.1875 -24.210938 44.105469 -12.996094 40.65625 -7.007812 C 39.824219 -5.609375 38.835938 -3.976562 37.8125 -2.652344 C 37.585938 -2.386719 37.472656 -2.273438 37.285156 -2.007812 C 36.640625 -1.175781 34.0625 1.703125 33.304688 2.3125 C 33.003906 2.539062 32.925781 2.578125 32.625 2.839844 L 30.730469 4.472656 C 30.578125 4.585938 29.289062 5.53125 29.289062 5.53125 Z M 20.839844 -26.789062 C 20.839844 -27.433594 20.726562 -27.320312 20.234375 -27.582031 C 19.324219 -27.355469 19.285156 -26.636719 18.945312 -25.917969 C 18.753906 -25.386719 17.996094 -25.082031 17.238281 -24.667969 C 15.082031 -23.339844 13.109375 -21.75 11.214844 -20.082031 C 8.109375 -16.976562 6.101562 -14.890625 3.597656 -11.140625 C 1.855469 -8.5625 -0.757812 -3.675781 -0.757812 -0.226562 C -0.757812 1.820312 0.605469 2.613281 1.441406 2.613281 C 1.855469 2.613281 2.121094 2.425781 2.046875 2.082031 C 1.855469 1.210938 0.417969 2.234375 0.417969 -0.226562 C 0.417969 -4.734375 5.378906 -11.859375 8.488281 -15.421875 L 10.988281 -18.074219 C 12.542969 -19.628906 16.597656 -22.773438 18.339844 -23.644531 L 16.976562 -16.976562 C 16.519531 -14.171875 15.496094 -5.304688 15.535156 -2.3125 C 15.535156 -1.097656 15.269531 0.339844 15.269531 1.554688 C 15.269531 2.878906 15.15625 4.015625 15.15625 5.417969 C 13.679688 6.175781 9.359375 6.628906 9.359375 9.925781 C 9.359375 11.898438 12.164062 12.921875 13.867188 12.921875 C 14.207031 12.921875 14.4375 12.882812 14.625 12.882812 C 14.929688 12.882812 15.003906 13.070312 15.117188 14.019531 C 15.15625 14.625 15.15625 14.964844 15.308594 15.496094 C 15.535156 16.140625 15.875 16.367188 16.179688 16.367188 C 16.519531 16.367188 16.824219 16.101562 16.785156 15.839844 L 16.632812 12.808594 C 17.617188 12.769531 19.628906 12.199219 20.421875 11.898438 C 22.847656 11.140625 26.21875 9.433594 28.339844 8.03125 C 29.175781 7.464844 29.476562 7.125 30.007812 7.125 C 30.351562 7.125 30.730469 7.273438 31.410156 7.617188 C 32.128906 7.996094 31.980469 8.296875 32.507812 8.640625 C 33.722656 7.804688 32.359375 6.554688 31.183594 6.289062 C 31.335938 5.796875 31.75 5.570312 32.394531 5.113281 C 32.851562 4.734375 33.265625 4.394531 33.722656 4.015625 C 34.289062 3.5625 36.148438 1.742188 36.714844 1.023438 L 37.851562 -0.226562 C 41.261719 -4.242188 43.648438 -8.335938 44.898438 -13.679688 C 45.921875 -18.148438 45.582031 -23.300781 42.171875 -26.710938 C 39.824219 -29.097656 36.5625 -29.972656 33.265625 -29.972656 C 30.992188 -29.972656 28.71875 -29.554688 26.636719 -28.949219 L 22.316406 -27.320312 C 21.824219 -27.128906 21.40625 -26.789062 20.839844 -26.789062 Z M 20.839844 -26.789062 "/></g></g></g><g fill="#ffffff" fill-opacity="1"><g transform="translate(91.00558, 193.533429)"><g><path d="M 7.273438 11.140625 C 6.707031 10.722656 6.667969 10.003906 6.972656 9.320312 C 7.160156 8.980469 7.085938 8.902344 7.464844 8.828125 C 7.351562 9.09375 7.273438 10.722656 7.273438 11.140625 Z M 10.304688 -24.058594 L 7.007812 -22.507812 C 5.910156 -21.9375 -1.515625 -17.996094 -1.515625 -16.898438 C -1.515625 -16.480469 -1.289062 -16.332031 -0.984375 -16.332031 C -0.757812 -16.332031 -0.492188 -16.445312 -0.265625 -16.558594 C 0.0390625 -16.746094 0.0742188 -16.824219 0.339844 -17.011719 C 0.644531 -17.203125 0.832031 -17.355469 1.097656 -17.503906 C 2.046875 -18.148438 2.992188 -18.71875 3.976562 -19.285156 L 8.488281 -21.636719 C 9.019531 -21.824219 9.546875 -22.089844 10.039062 -22.355469 L 8.980469 -11.746094 C 8.828125 -10.496094 8.714844 -9.359375 8.714844 -8.070312 L 5.910156 -6.746094 C 5.417969 -6.515625 3.636719 -5.492188 3.636719 -4.925781 C 3.636719 -4.546875 3.789062 -4.433594 4.015625 -4.433594 C 4.507812 -4.433594 5.265625 -5 5.304688 -5 L 8.488281 -6.628906 L 7.996094 0.113281 C 7.957031 0.53125 7.996094 0.910156 7.996094 1.289062 C 7.957031 1.820312 7.882812 1.742188 7.882812 2.347656 C 7.84375 2.957031 7.652344 6.480469 7.539062 6.859375 C 7.238281 7.804688 5.683594 7.578125 5.683594 10.535156 C 5.683594 11.253906 6.628906 12.617188 7.425781 12.617188 C 7.957031 12.617188 8.449219 12.050781 8.601562 10.34375 C 8.675781 9.320312 8.601562 7.617188 9.207031 7.199219 C 9.472656 7.046875 9.890625 6.859375 10.304688 6.667969 C 10.761719 6.402344 11.027344 6.289062 11.519531 6.101562 C 16.179688 4.054688 22.355469 3.484375 27.46875 3.484375 C 28.835938 3.484375 30.046875 3.5625 30.878906 3.714844 C 32.507812 3.976562 32.28125 4.394531 32.660156 4.660156 C 33.039062 4.167969 33.078125 4.546875 33.078125 3.75 C 33.078125 2.652344 30.652344 2.3125 27.734375 2.3125 C 23.605469 2.3125 18.527344 2.957031 17.617188 3.144531 C 15.34375 3.484375 13.035156 4.128906 10.988281 5.039062 C 10.417969 5.265625 9.585938 5.871094 8.980469 5.910156 L 10.191406 -7.351562 C 10.648438 -7.386719 11.027344 -7.578125 11.40625 -7.730469 C 13.449219 -8.523438 18.375 -10.039062 20.308594 -10.039062 C 20.648438 -10.039062 20.726562 -9.851562 20.765625 -9.546875 C 21.105469 -9.585938 21.105469 -9.625 21.371094 -9.660156 C 21.597656 -10.648438 21.484375 -11.175781 20.195312 -11.175781 C 19.816406 -11.175781 19.398438 -11.140625 18.871094 -11.0625 C 17.46875 -10.914062 14.398438 -10.039062 13.070312 -9.625 C 12.3125 -9.398438 10.875 -8.753906 10.304688 -8.675781 C 10.304688 -9.433594 10.496094 -10.34375 10.535156 -11.027344 L 11.746094 -22.921875 C 12.199219 -23.757812 22.316406 -26.863281 23.378906 -27.167969 C 28.417969 -28.378906 30.234375 -28.53125 35.390625 -28.53125 C 36.261719 -28.53125 36.675781 -28.339844 37.320312 -28.226562 C 37.207031 -27.546875 36.488281 -26.824219 36.222656 -26.105469 C 37.246094 -26.21875 38.535156 -26.902344 38.535156 -28.339844 C 38.535156 -29.59375 36.527344 -29.972656 34.023438 -29.972656 C 30.464844 -29.972656 25.804688 -29.175781 24.589844 -28.871094 C 20.953125 -28.191406 16.824219 -26.75 13.449219 -25.386719 C 12.996094 -25.234375 12.277344 -24.855469 11.859375 -24.78125 C 12.050781 -26.976562 12.199219 -28.417969 12.199219 -30.84375 C 12.199219 -31.488281 11.898438 -31.636719 11.480469 -31.867188 C 10.683594 -31.410156 10.949219 -31.410156 10.835938 -30.351562 C 10.796875 -29.707031 10.648438 -28.796875 10.648438 -28.226562 C 10.648438 -26.824219 10.304688 -25.5 10.304688 -24.058594 Z M 10.304688 -24.058594 "/></g></g></g><g fill="#ffffff" fill-opacity="1"><g transform="translate(125.293073, 193.533429)"><g><path d="M 1.175781 -32.8125 C 1.175781 -30.046875 1.402344 -26.484375 1.402344 -23.566406 C 1.402344 -15.953125 0.757812 -8.640625 0.757812 -0.910156 L 1.023438 4.546875 C 1.023438 7.386719 2.613281 17.734375 5.457031 17.734375 C 7.273438 17.734375 8.109375 15.496094 8.675781 13.753906 C 10.417969 8.601562 11.898438 2.765625 13.640625 -2.386719 L 15.269531 -7.765625 C 16.179688 -11.101562 17.617188 -15.34375 18.527344 -18.605469 C 18.984375 -20.269531 19.285156 -20.992188 19.890625 -22.46875 C 20.082031 -22.960938 20.007812 -23.453125 19.285156 -23.453125 C 18.148438 -23.453125 16.027344 -15.117188 15.609375 -13.828125 C 15.082031 -12.164062 14.585938 -10.457031 14.058594 -8.753906 L 8.601562 9.019531 C 8.03125 10.796875 6.933594 15.34375 5.722656 16.179688 C 4.28125 15.722656 3.449219 10.191406 3.296875 8.941406 C 2.007812 -0.0742188 3.371094 -12.199219 3.371094 -21.597656 C 3.371094 -23.265625 3.371094 -27.46875 3.183594 -28.835938 C 2.957031 -30.425781 3.183594 -33.230469 1.820312 -33.230469 C 1.515625 -33.230469 1.402344 -33.003906 1.175781 -32.8125 Z M 1.175781 -32.8125 "/></g></g></g><g fill="#ffffff" fill-opacity="1"><g transform="translate(141.925354, 193.533429)"><g><path d="M 7.273438 11.140625 C 6.707031 10.722656 6.667969 10.003906 6.972656 9.320312 C 7.160156 8.980469 7.085938 8.902344 7.464844 8.828125 C 7.351562 9.09375 7.273438 10.722656 7.273438 11.140625 Z M 10.304688 -24.058594 L 7.007812 -22.507812 C 5.910156 -21.9375 -1.515625 -17.996094 -1.515625 -16.898438 C -1.515625 -16.480469 -1.289062 -16.332031 -0.984375 -16.332031 C -0.757812 -16.332031 -0.492188 -16.445312 -0.265625 -16.558594 C 0.0390625 -16.746094 0.0742188 -16.824219 0.339844 -17.011719 C 0.644531 -17.203125 0.832031 -17.355469 1.097656 -17.503906 C 2.046875 -18.148438 2.992188 -18.71875 3.976562 -19.285156 L 8.488281 -21.636719 C 9.019531 -21.824219 9.546875 -22.089844 10.039062 -22.355469 L 8.980469 -11.746094 C 8.828125 -10.496094 8.714844 -9.359375 8.714844 -8.070312 L 5.910156 -6.746094 C 5.417969 -6.515625 3.636719 -5.492188 3.636719 -4.925781 C 3.636719 -4.546875 3.789062 -4.433594 4.015625 -4.433594 C 4.507812 -4.433594 5.265625 -5 5.304688 -5 L 8.488281 -6.628906 L 7.996094 0.113281 C 7.957031 0.53125 7.996094 0.910156 7.996094 1.289062 C 7.957031 1.820312 7.882812 1.742188 7.882812 2.347656 C 7.84375 2.957031 7.652344 6.480469 7.539062 6.859375 C 7.238281 7.804688 5.683594 7.578125 5.683594 10.535156 C 5.683594 11.253906 6.628906 12.617188 7.425781 12.617188 C 7.957031 12.617188 8.449219 12.050781 8.601562 10.34375 C 8.675781 9.320312 8.601562 7.617188 9.207031 7.199219 C 9.472656 7.046875 9.890625 6.859375 10.304688 6.667969 C 10.761719 6.402344 11.027344 6.289062 11.519531 6.101562 C 16.179688 4.054688 22.355469 3.484375 27.46875 3.484375 C 28.835938 3.484375 30.046875 3.5625 30.878906 3.714844 C 32.507812 3.976562 32.28125 4.394531 32.660156 4.660156 C 33.039062 4.167969 33.078125 4.546875 33.078125 3.75 C 33.078125 2.652344 30.652344 2.3125 27.734375 2.3125 C 23.605469 2.3125 18.527344 2.957031 17.617188 3.144531 C 15.34375 3.484375 13.035156 4.128906 10.988281 5.039062 C 10.417969 5.265625 9.585938 5.871094 8.980469 5.910156 L 10.191406 -7.351562 C 10.648438 -7.386719 11.027344 -7.578125 11.40625 -7.730469 C 13.449219 -8.523438 18.375 -10.039062 20.308594 -10.039062 C 20.648438 -10.039062 20.726562 -9.851562 20.765625 -9.546875 C 21.105469 -9.585938 21.105469 -9.625 21.371094 -9.660156 C 21.597656 -10.648438 21.484375 -11.175781 20.195312 -11.175781 C 19.816406 -11.175781 19.398438 -11.140625 18.871094 -11.0625 C 17.46875 -10.914062 14.398438 -10.039062 13.070312 -9.625 C 12.3125 -9.398438 10.875 -8.753906 10.304688 -8.675781 C 10.304688 -9.433594 10.496094 -10.34375 10.535156 -11.027344 L 11.746094 -22.921875 C 12.199219 -23.757812 22.316406 -26.863281 23.378906 -27.167969 C 28.417969 -28.378906 30.234375 -28.53125 35.390625 -28.53125 C 36.261719 -28.53125 36.675781 -28.339844 37.320312 -28.226562 C 37.207031 -27.546875 36.488281 -26.824219 36.222656 -26.105469 C 37.246094 -26.21875 38.535156 -26.902344 38.535156 -28.339844 C 38.535156 -29.59375 36.527344 -29.972656 34.023438 -29.972656 C 30.464844 -29.972656 25.804688 -29.175781 24.589844 -28.871094 C 20.953125 -28.191406 16.824219 -26.75 13.449219 -25.386719 C 12.996094 -25.234375 12.277344 -24.855469 11.859375 -24.78125 C 12.050781 -26.976562 12.199219 -28.417969 12.199219 -30.84375 C 12.199219 -31.488281 11.898438 -31.636719 11.480469 -31.867188 C 10.683594 -31.410156 10.949219 -31.410156 10.835938 -30.351562 C 10.796875 -29.707031 10.648438 -28.796875 10.648438 -28.226562 C 10.648438 -26.824219 10.304688 -25.5 10.304688 -24.058594 Z M 10.304688 -24.058594 "/></g></g></g><g fill="#ffffff" fill-opacity="1"><g transform="translate(176.212847, 193.533429)"><g><path d="M 10.382812 17.503906 C 10.304688 17.503906 10.230469 17.503906 10.15625 17.503906 C 9.246094 17.503906 8.902344 17.46875 8.902344 16.558594 C 8.902344 15.496094 10.039062 13.792969 10.570312 13.109375 C 12.3125 10.796875 12.882812 10.457031 14.929688 8.523438 L 16.976562 6.707031 C 17.238281 6.515625 17.429688 6.402344 17.65625 6.175781 C 17.996094 5.949219 18.113281 5.757812 18.492188 5.644531 C 18.679688 7.804688 18.832031 8.980469 17.65625 11.328125 C 17.46875 11.820312 17.125 12.238281 16.859375 12.730469 C 16.519531 13.261719 16.253906 13.566406 15.839844 14.058594 C 14.816406 15.421875 12.125 17.503906 10.382812 17.503906 Z M 0 -4.507812 C 0 -2.347656 0.796875 -0.832031 2.425781 -0.226562 C 4.128906 0.417969 6.175781 0.339844 8.5625 0.378906 L 11.632812 0.605469 C 14.625 0.945312 16.632812 1.703125 17.996094 4.28125 L 14.964844 6.78125 C 12.921875 8.5625 11.140625 10.117188 9.472656 12.429688 C 8.335938 13.945312 7.691406 15.15625 7.691406 17.011719 C 7.691406 18.605469 9.472656 18.753906 10.535156 18.753906 C 14.285156 18.753906 19.96875 12.691406 19.96875 7.351562 C 19.96875 6.402344 19.777344 5.570312 19.589844 4.773438 C 19.890625 4.320312 22.734375 2.121094 23.53125 1.476562 L 25.953125 -0.492188 C 27.507812 -2.007812 28.796875 -3.03125 30.464844 -4.660156 C 32.167969 -6.367188 31.488281 -5.378906 31.488281 -6.367188 C 31.296875 -6.402344 31.144531 -6.480469 30.957031 -6.480469 C 30.652344 -6.480469 30.3125 -6.25 29.441406 -5.34375 C 28.949219 -4.851562 28.492188 -4.546875 28 -4.054688 L 25.082031 -1.476562 C 23.378906 -0.113281 20.648438 2.347656 18.984375 3.449219 C 18.566406 1.855469 16.140625 0.378906 14.664062 -0.0742188 C 12.011719 -0.945312 10.269531 -0.71875 7.578125 -0.871094 C 5.53125 -0.945312 2.347656 -0.871094 1.628906 -2.804688 C 1.25 -3.902344 1.402344 -5 1.554688 -6.175781 C 1.894531 -8.070312 3.144531 -11.554688 4.242188 -13.261719 C 4.964844 -14.585938 5.378906 -15.421875 6.402344 -16.976562 L 10.875 -22.316406 C 11.214844 -22.734375 11.519531 -22.886719 11.898438 -23.226562 C 12.503906 -23.832031 13.488281 -24.4375 14.207031 -24.894531 C 15.230469 -25.460938 16.332031 -25.878906 17.390625 -25.878906 C 18.605469 -25.878906 19.703125 -25.347656 20.460938 -23.910156 C 22.050781 -20.839844 21.40625 -16.519531 20.878906 -13.300781 C 20.6875 -12.542969 19.398438 -8.070312 20.574219 -8.070312 C 21.40625 -8.070312 21.558594 -9.09375 21.824219 -10.269531 C 22.542969 -12.957031 23.265625 -16.140625 23.265625 -19.132812 C 23.265625 -23.039062 21.597656 -27.203125 17.996094 -27.46875 C 14.285156 -27.46875 11.671875 -25.308594 9.132812 -22.847656 C 7.691406 -21.332031 5.644531 -18.832031 4.660156 -17.050781 C 2.460938 -13.601562 0 -8.5625 0 -4.507812 Z M 0 -4.507812 "/></g></g></g><g fill="#ffffff" fill-opacity="1"><g transform="translate(206.370693, 193.533429)"><g><path d="M 17.429688 5.644531 C 17.011719 5.570312 16.9375 5.378906 16.632812 5.113281 C 14.246094 3.296875 11.367188 2.957031 8.5625 2.957031 C 7.578125 2.957031 6.628906 2.992188 5.683594 3.03125 C 4.734375 3.03125 3.597656 3.257812 2.691406 3.257812 C 2.691406 2.691406 2.765625 2.539062 2.765625 1.855469 C 2.804688 1.175781 2.878906 1.136719 3.335938 0.796875 C 6.667969 -1.589844 12.3125 -4.207031 16.292969 -5.34375 C 16.976562 -5.492188 18.226562 -5.949219 18.90625 -5.949219 L 17.734375 2.613281 C 17.582031 3.597656 17.429688 4.621094 17.429688 5.644531 Z M 19.171875 -7.3125 C 9.433594 -5.078125 3.484375 -0.605469 3.03125 -0.492188 C 3.03125 -2.765625 3.484375 -5.039062 3.675781 -7.199219 C 3.976562 -11.101562 5.230469 -19.890625 5.910156 -23.71875 C 6.023438 -24.324219 6.78125 -27.847656 6.023438 -28.457031 C 5.871094 -28.570312 5.722656 -28.605469 5.644531 -28.605469 C 5.457031 -28.605469 5.378906 -28.457031 5.378906 -28.457031 C 4.851562 -28.191406 5.078125 -28.339844 4.734375 -26.824219 C 3.523438 -20.800781 2.613281 -14.738281 1.820312 -8.675781 L 1.402344 -4.355469 C 1.402344 -2.917969 1.136719 -1.476562 1.0625 -0.0742188 C 1.023438 0.945312 1.136719 1.136719 0.53125 1.742188 C -0.53125 2.804688 -0.796875 4.28125 0.683594 4.394531 C 0.683594 6.441406 0.265625 8.789062 0.265625 10.15625 C 0.265625 12.464844 0.0742188 15.042969 0.0742188 17.882812 C 0.0742188 18.339844 0.378906 18.90625 0.796875 18.90625 C 1.855469 18.90625 1.628906 18.113281 1.667969 17.125 L 2.046875 11.972656 C 2.046875 11.175781 2.082031 10.269531 2.199219 9.398438 L 2.691406 4.472656 C 2.957031 4.207031 8.449219 4.167969 9.660156 4.167969 C 12.164062 4.167969 14.625 5 15.988281 6.175781 C 17.277344 7.238281 17.089844 7.160156 17.011719 9.019531 C 16.9375 10.796875 16.746094 11.898438 16.746094 14.019531 C 16.746094 14.472656 17.089844 14.929688 17.542969 14.929688 C 17.921875 14.929688 18.375 14.550781 18.679688 13.375 C 19.097656 11.746094 19.058594 11.519531 19.058594 9.890625 C 19.058594 7.882812 18.375 9.511719 18.945312 5.910156 L 20.765625 -6.441406 L 24.023438 -7.125 C 26.03125 -7.425781 28.605469 -7.957031 30.691406 -7.957031 C 30.730469 -7.957031 30.804688 -7.957031 30.878906 -7.957031 C 31.144531 -7.957031 31.410156 -7.917969 31.636719 -7.917969 C 31.980469 -7.917969 32.28125 -7.996094 32.320312 -8.375 C 32.433594 -9.019531 31.5625 -9.246094 30.386719 -9.246094 C 28 -9.246094 24.171875 -8.375 23.378906 -8.222656 C 22.886719 -8.144531 21.40625 -7.882812 21.027344 -7.730469 C 21.292969 -10.988281 24.023438 -22.660156 24.894531 -26.066406 C 25.308594 -27.621094 25.652344 -28 25.425781 -29.214844 C 25.195312 -29.25 25.007812 -29.289062 24.816406 -29.289062 C 24.210938 -29.289062 24.210938 -28.796875 23.679688 -27.167969 C 22.355469 -23.265625 20.460938 -14.585938 19.664062 -10.304688 C 19.511719 -9.320312 19.363281 -8.261719 19.171875 -7.3125 Z M 19.171875 -7.3125 "/></g></g></g><g fill="#ffffff" fill-opacity="1"><g transform="translate(236.528539, 193.533429)"><g/></g></g><g fill="#ffffff" fill-opacity="1"><g transform="translate(246.341206, 193.533429)"><g><path d="M -1.175781 15.535156 C -3.597656 15.535156 -2.5 11.746094 -1.894531 10.417969 C -1.136719 8.753906 -0.1875 7.085938 0.910156 5.722656 L 3.484375 2.804688 C 3.828125 2.425781 4.128906 2.273438 4.472656 1.933594 C 4.8125 1.515625 5.113281 1.324219 5.492188 1.023438 L 7.652344 -0.605469 C 8.070312 -0.832031 8.410156 -1.0625 8.789062 -1.289062 C 8.789062 0.644531 5.871094 8.789062 4.28125 10.875 C 3.449219 12.542969 0.605469 15.535156 -1.175781 15.535156 Z M 0.566406 -15.195312 C 0.566406 -13.828125 0.683594 -12.578125 1.25 -11.671875 C 2.199219 -10.230469 3.144531 -10.117188 4.585938 -10.117188 C 5.078125 -10.117188 5.191406 -10.914062 4.472656 -11.0625 C 3.675781 -11.214844 3.449219 -11.0625 2.917969 -11.554688 C 1.894531 -12.238281 1.703125 -13.601562 1.703125 -14.964844 C 1.703125 -18.566406 4.128906 -22.960938 6.175781 -25.574219 C 7.238281 -26.976562 8.144531 -27.886719 8.902344 -27.886719 C 9.511719 -27.886719 10.039062 -27.242188 10.417969 -25.652344 C 11.0625 -23.1875 10.796875 -21.863281 10.914062 -20.765625 C 10.988281 -20.234375 11.027344 -19.742188 11.027344 -19.097656 L 10.570312 -12.3125 C 10.417969 -11.175781 10.34375 -10.078125 10.230469 -9.054688 C 10.117188 -8.144531 9.472656 -3.257812 9.132812 -2.839844 L 6.933594 -1.554688 C 4.507812 0.152344 2.652344 1.78125 0.757812 4.054688 C -1.023438 6.175781 -3.789062 10.34375 -3.789062 13.148438 L -3.789062 14.207031 C -3.789062 15.722656 -2.613281 16.671875 -0.984375 16.671875 C 1.097656 16.671875 3.597656 14.324219 4.8125 12.808594 C 8.03125 8.523438 9.699219 3.410156 10.914062 -1.742188 C 11.253906 -2.992188 11.328125 -2.691406 12.351562 -3.144531 C 13.527344 -3.75 15.117188 -4.28125 16.40625 -4.660156 C 16.859375 -4.773438 20.460938 -5.835938 20.460938 -6.136719 C 20.460938 -6.402344 20.386719 -6.441406 20.308594 -6.707031 C 18.605469 -6.707031 17.277344 -6.136719 15.6875 -5.609375 C 14.929688 -5.304688 14.246094 -5.078125 13.601562 -4.851562 C 12.957031 -4.621094 12.050781 -4.320312 11.480469 -4.015625 L 12.050781 -7.578125 C 12.578125 -11.027344 14.664062 -29.402344 9.28125 -29.402344 C 6.746094 -29.402344 4.472656 -25.6875 3.335938 -23.679688 C 2.199219 -21.636719 0.566406 -18.261719 0.566406 -15.195312 Z M 0.566406 -15.195312 "/></g></g></g><g fill="#ffffff" fill-opacity="1"><g transform="translate(264.981479, 193.533429)"><g><path d="M 1.742188 10.117188 C 1.441406 10.117188 1.441406 10.039062 1.136719 10.003906 C 0.53125 7.3125 3.828125 3.941406 5.53125 2.234375 C 5.910156 1.820312 7.273438 0.605469 7.730469 0.492188 C 7.386719 1.097656 7.125 3.257812 5.683594 6.175781 C 5.039062 7.464844 3.371094 10.117188 1.742188 10.117188 Z M 20.234375 -8.109375 C 19.855469 -7.917969 19.285156 -7.765625 18.792969 -7.652344 C 17.542969 -7.199219 15.988281 -6.480469 14.851562 -5.910156 L 11.140625 -3.863281 C 10.722656 -3.597656 10.304688 -3.257812 9.851562 -3.105469 C 9.925781 -3.863281 10.570312 -6.136719 10.761719 -6.972656 C 11.441406 -9.511719 12.691406 -13.527344 13.753906 -15.914062 L 15.308594 -19.25 C 16.367188 -21.371094 20.347656 -28.339844 23 -28.492188 C 23.832031 -27.203125 23 -23.453125 22.734375 -22.089844 C 22.050781 -18.792969 21.027344 -13.753906 20.613281 -10.496094 C 20.5 -9.738281 20.421875 -8.828125 20.234375 -8.109375 Z M 1.515625 11.40625 C 7.125 11.40625 9.09375 -0.683594 9.511719 -1.097656 C 9.546875 -1.175781 10.648438 -1.96875 10.835938 -2.046875 C 13.566406 -3.789062 13.640625 -3.828125 16.710938 -5.34375 C 18.074219 -6.023438 19.285156 -6.367188 20.007812 -6.707031 C 20.007812 -5.644531 19.855469 -4.964844 19.742188 -3.941406 L 18.566406 7.125 C 18.492188 8.867188 18.226562 11.632812 18.226562 12.996094 C 18.226562 13.679688 18.113281 13.792969 18.113281 14.398438 C 18.035156 15.535156 17.882812 19.890625 19.019531 19.890625 C 20.121094 19.890625 19.628906 18.945312 19.628906 16.671875 C 19.628906 15.382812 19.742188 14.359375 19.742188 13.222656 L 21.558594 -6.441406 C 21.636719 -7.238281 21.671875 -7.238281 22.394531 -7.386719 C 23.417969 -7.578125 23.910156 -7.617188 24.136719 -7.617188 C 24.515625 -7.617188 24.058594 -7.425781 24.742188 -7.425781 C 25.539062 -7.425781 25.726562 -8.828125 24.289062 -8.828125 C 23.339844 -8.828125 22.734375 -8.601562 21.902344 -8.601562 C 21.902344 -9.433594 22.050781 -10.039062 22.164062 -10.835938 C 22.660156 -14.207031 24.628906 -23.71875 24.628906 -26.144531 C 24.628906 -27.320312 24.816406 -29.707031 22.886719 -29.707031 C 21.144531 -29.707031 19.019531 -27.203125 18.1875 -26.144531 C 13.1875 -20.042969 10.117188 -10.535156 8.449219 -2.726562 C 8.222656 -1.628906 8.03125 -1.820312 6.480469 -0.53125 C 4.015625 1.515625 -0.265625 5.796875 -0.378906 9.167969 C -0.378906 10.382812 0.339844 11.40625 1.515625 11.40625 Z M 1.515625 11.40625 "/></g></g></g><g fill="#ffffff" fill-opacity="1"><g transform="translate(288.471254, 193.533429)"><g><path d="M 1.894531 -9.964844 C 1.894531 -7.996094 2.199219 -6.214844 3.257812 -4.964844 C 4.546875 -3.371094 5.871094 -2.878906 6.820312 -2.878906 C 8.222656 -2.878906 8.828125 -3.902344 7.578125 -4.242188 C 7.199219 -4.355469 6.894531 -4.394531 6.515625 -4.546875 C 5.722656 -4.8125 5.113281 -5.304688 4.621094 -5.949219 C 2.425781 -8.640625 3.636719 -13.566406 4.851562 -16.253906 C 5.871094 -18.640625 7.3125 -20.800781 9.019531 -22.734375 C 10.039062 -24.023438 13.488281 -27.28125 15.230469 -27.28125 C 16.21875 -27.28125 16.632812 -26.863281 17.125 -25.878906 C 18.453125 -23.074219 16.785156 -16.027344 16.101562 -13.300781 C 15.382812 -10.457031 14.777344 -7.617188 14.09375 -4.8125 C 13.488281 -1.894531 12.882812 1.097656 12.542969 4.054688 L 11.671875 10.988281 C 11.59375 11.746094 11.367188 12.957031 11.933594 13.1875 C 12.011719 13.222656 12.085938 13.222656 12.164062 13.222656 C 12.730469 13.222656 12.691406 12.085938 12.769531 11.554688 C 12.84375 10.796875 12.957031 9.964844 13.070312 9.207031 C 14.246094 0.757812 15.574219 -4.394531 17.429688 -12.578125 C 18.226562 -16.027344 20.007812 -23.378906 18.113281 -26.789062 C 17.390625 -28.039062 16.445312 -28.492188 15.460938 -28.492188 C 13.566406 -28.492188 11.480469 -26.902344 10.269531 -25.6875 C 9.925781 -25.308594 9.625 -25.121094 9.246094 -24.78125 C 5.644531 -21.179688 1.894531 -15.117188 1.894531 -9.964844 Z M 1.894531 -9.964844 "/></g></g></g><g fill="#ffffff" fill-opacity="1"><g transform="translate(306.39167, 193.533429)"><g><path d="M 18.300781 -25.613281 C 18.300781 -23.492188 19.324219 -18.1875 19.324219 -14.851562 C 19.324219 -8.640625 18.453125 -3.371094 17.125 2.5 C 16.824219 3.789062 14.132812 15.609375 12.125 15.609375 C 10.875 15.609375 9.890625 8.867188 9.699219 7.691406 C 9.359375 5.113281 9.207031 2.917969 8.941406 0.796875 L 8.109375 -11.328125 C 8.109375 -12.921875 7.503906 -19.019531 6.515625 -20.007812 C 6.289062 -20.195312 6.023438 -20.308594 5.796875 -20.308594 C 5.457031 -20.308594 5.078125 -20.121094 4.851562 -19.816406 C 3.523438 -18.1875 0.796875 -3.5625 0.417969 -0.984375 C -0.113281 3.03125 -0.910156 11.027344 -0.683594 14.816406 L -0.492188 17.542969 C -0.417969 18.261719 -0.378906 18.566406 0.226562 18.566406 C 1.023438 18.566406 0.53125 16.519531 0.53125 15.042969 C 0.53125 10.34375 0.71875 8.675781 1.136719 4.128906 C 1.515625 -0.644531 3.5625 -11.441406 4.964844 -16.292969 C 5.113281 -16.898438 5.34375 -17.46875 5.492188 -18.074219 C 6.023438 -17.65625 6.289062 -11.933594 6.289062 -11.214844 C 6.289062 -10.609375 6.367188 -10.496094 6.402344 -10.039062 C 6.402344 -9.585938 6.367188 -9.167969 6.402344 -8.714844 C 6.59375 -7.273438 6.628906 -5.457031 6.746094 -3.863281 C 7.007812 -0.492188 8.449219 16.859375 11.898438 16.859375 L 12.351562 16.859375 C 13.679688 16.859375 14.777344 14.324219 15.230469 13.222656 C 17.429688 7.730469 19.890625 -3.675781 20.347656 -9.738281 L 20.5 -12.921875 C 20.535156 -13.527344 20.648438 -13.679688 20.535156 -14.472656 C 20.460938 -15.003906 20.5 -15.421875 20.5 -15.988281 C 20.5 -16.671875 20.386719 -17.011719 20.347656 -17.582031 C 20.308594 -18.71875 19.777344 -22.164062 19.589844 -23.453125 C 19.511719 -24.058594 19.476562 -24.324219 19.4375 -24.894531 C 19.363281 -25.347656 19.4375 -26.066406 18.871094 -26.066406 C 18.640625 -26.066406 18.300781 -25.765625 18.300781 -25.613281 Z M 18.300781 -25.613281 "/></g></g></g></svg>